<?xml version="1.0" standalone="no"?>
<!DOCTYPE svg PUBLIC "-//W3C//DTD SVG 20010904//EN"
 "http://www.w3.org/TR/2001/REC-SVG-20010904/DTD/svg10.dtd">
<svg version="1.0" xmlns="http://www.w3.org/2000/svg"
 width="549.000000pt" height="549.000000pt" viewBox="0 0 549.000000 549.000000"
 preserveAspectRatio="xMidYMid meet">
<metadata>
Created by potrace 1.14, written by Peter Selinger 2001-2017
</metadata>
<g transform="translate(0.000000,549.000000) scale(0.100000,-0.100000)"
fill="#000000" stroke="none">
<path d="M2740 4707 l0 -787 -49 0 c-26 0 -87 -7 -134 -15 -379 -66 -691 -295
-862 -635 -324 -642 4 -1423 690 -1644 92 -30 236 -56 306 -56 l49 0 0 -785 0
-785 73 0 c171 0 421 37 645 96 535 139 1070 484 1415 914 501 622 712 1432
576 2205 -99 560 -364 1069 -763 1468 -485 484 -1130 771 -1810 804 l-136 6 0
-786z m223 -943 c104 -21 236 -75 333 -135 103 -64 252 -207 312 -299 248
-380 237 -851 -29 -1210 -176 -238 -443 -385 -756 -415 l-73 -7 0 1047 0 1047
73 -7 c39 -4 103 -13 140 -21z"/>
</g>
</svg>
